<svg id="svg" version="1.1" xmlns="http://www.w3.org/2000/svg" xmlns:xlink="http://www.w3.org/1999/xlink" width="400" height="400" viewBox="0, 0, 400,400"><g id="svgg"><path id="path0" d="M80.899 200.091 L 81.000 319.400 199.758 319.501 C 288.340 319.576,318.656 319.485,319.067 319.144 C 319.505 318.781,319.595 317.207,319.509 311.444 L 319.400 304.200 208.320 304.000 C 131.649 303.862,97.110 303.670,96.821 303.381 C 96.531 303.091,96.370 268.707,96.301 191.981 L 96.200 81.000 88.499 80.891 L 80.799 80.783 80.899 200.091 M166.605 116.500 C 166.478 117.215,166.424 147.050,166.487 182.800 L 166.600 247.800 191.600 247.800 C 214.437 247.800,216.724 247.740,218.038 247.111 C 218.828 246.732,220.538 246.302,221.838 246.155 C 223.137 246.008,224.830 245.579,225.600 245.201 C 226.370 244.823,227.697 244.406,228.550 244.274 C 229.402 244.142,230.392 243.778,230.750 243.464 C 231.107 243.151,231.850 242.759,232.400 242.592 C 232.950 242.426,233.829 241.955,234.354 241.545 C 234.879 241.135,235.617 240.800,235.996 240.800 C 236.374 240.800,237.169 240.350,237.762 239.800 C 238.356 239.250,239.186 238.800,239.607 238.800 C 240.027 238.800,240.565 238.440,240.800 238.000 C 241.035 237.560,241.483 237.200,241.794 237.200 C 242.106 237.200,242.504 236.944,242.680 236.631 C 243.011 236.043,246.575 233.200,246.982 233.200 C 247.559 233.200,255.200 223.726,255.200 223.012 C 255.200 222.729,255.467 222.277,255.793 222.006 C 256.119 221.735,257.031 220.228,257.820 218.657 C 258.609 217.086,259.509 215.350,259.821 214.800 C 260.133 214.250,260.391 213.461,260.394 213.047 C 260.397 212.633,260.739 211.733,261.153 211.047 C 261.567 210.361,262.031 208.900,262.184 207.800 C 262.337 206.700,262.736 205.374,263.071 204.853 C 263.422 204.307,263.822 202.278,264.016 200.053 C 264.201 197.934,264.633 195.531,264.976 194.713 C 265.893 192.527,265.897 171.086,264.982 168.895 C 264.642 168.081,264.196 165.657,263.991 163.508 C 263.786 161.359,263.359 159.196,263.041 158.700 C 262.723 158.205,262.332 156.906,262.173 155.814 C 262.014 154.721,261.550 153.281,261.143 152.614 C 260.736 151.946,260.402 150.940,260.401 150.378 C 260.401 149.815,259.950 148.745,259.400 148.000 C 258.850 147.255,258.400 146.347,258.400 145.984 C 258.400 145.621,258.050 145.007,257.623 144.621 C 257.195 144.234,256.731 143.396,256.591 142.759 C 256.451 142.121,256.166 141.600,255.958 141.600 C 255.750 141.600,255.400 141.195,255.180 140.700 C 254.711 139.645,253.086 137.273,252.211 136.366 C 251.875 136.018,251.600 135.593,251.600 135.422 C 251.600 135.064,243.710 127.200,243.350 127.200 C 242.824 127.200,239.231 124.658,239.035 124.147 C 238.920 123.846,238.494 123.600,238.090 123.600 C 237.686 123.600,236.745 123.150,236.000 122.600 C 235.255 122.050,234.393 121.600,234.085 121.600 C 233.778 121.600,233.069 121.240,232.509 120.800 C 231.950 120.360,231.091 120.000,230.600 120.000 C 230.109 120.000,229.279 119.665,228.754 119.256 C 228.229 118.847,226.900 118.383,225.800 118.225 C 224.700 118.067,223.370 117.661,222.845 117.324 C 222.277 116.958,220.251 116.569,217.845 116.362 C 215.620 116.171,212.630 115.835,211.200 115.616 C 209.724 115.389,199.572 115.213,187.718 115.208 L 166.836 115.200 166.605 116.500 M209.037 132.814 C 209.636 133.042,211.987 133.373,214.262 133.551 C 217.016 133.766,218.632 134.078,219.099 134.486 C 219.484 134.823,220.510 135.226,221.379 135.382 C 222.247 135.538,223.396 136.011,223.933 136.433 C 224.469 136.855,225.083 137.200,225.296 137.200 C 225.510 137.200,226.250 137.648,226.942 138.196 C 227.634 138.745,228.617 139.510,229.126 139.896 C 230.358 140.833,232.410 142.899,233.400 144.199 C 233.840 144.778,234.560 145.643,235.000 146.122 C 236.201 147.430,237.483 149.401,237.816 150.451 C 237.979 150.964,238.430 151.838,238.819 152.392 C 239.207 152.947,239.645 154.101,239.792 154.957 C 239.938 155.814,240.302 156.759,240.600 157.057 C 240.898 157.355,241.268 158.635,241.422 159.900 C 241.576 161.165,241.994 162.740,242.351 163.400 C 243.332 165.213,243.332 197.987,242.351 199.800 C 241.994 200.460,241.581 201.998,241.432 203.219 C 241.284 204.439,240.812 205.969,240.384 206.619 C 239.956 207.268,239.604 208.267,239.603 208.838 C 239.601 209.409,239.258 210.186,238.840 210.564 C 238.421 210.943,237.961 211.880,237.818 212.647 C 237.674 213.414,237.312 214.136,237.015 214.250 C 236.717 214.364,236.255 214.985,235.988 215.629 C 235.721 216.273,235.357 216.800,235.178 216.800 C 235.000 216.800,234.752 217.115,234.627 217.500 C 234.086 219.162,227.152 225.600,225.901 225.600 C 225.736 225.600,225.240 225.960,224.800 226.400 C 224.360 226.840,223.578 227.200,223.062 227.200 C 222.546 227.200,221.815 227.541,221.438 227.958 C 221.060 228.375,219.922 228.841,218.909 228.993 C 217.896 229.145,216.610 229.569,216.052 229.935 C 214.745 230.792,190.359 231.196,189.372 230.377 C 188.467 229.626,188.517 134.582,189.423 133.289 C 190.122 132.291,206.610 131.891,209.037 132.814 " stroke="none" fill="#040404" fill-rule="evenodd"></path><path id="path1" d="M0.000 200.000 L 0.000 400.000 200.000 400.000 L 400.000 400.000 400.000 200.000 L 400.000 0.000 200.000 0.000 L 0.000 0.000 0.000 200.000 M96.981 80.064 L 98.000 80.528 98.004 190.164 C 98.007 250.464,98.120 300.474,98.256 301.298 L 98.504 302.796 209.484 302.898 C 319.942 303.000,320.467 303.004,321.053 303.800 C 321.998 305.086,321.681 319.693,320.686 320.687 C 319.697 321.674,81.925 322.018,80.579 321.034 C 79.480 320.231,79.131 81.327,80.227 80.231 C 81.024 79.434,95.286 79.292,96.981 80.064 M217.227 114.791 C 218.862 115.225,220.791 115.585,221.513 115.591 C 222.235 115.596,223.495 115.886,224.313 116.236 C 225.131 116.585,226.610 117.106,227.600 117.393 C 230.046 118.103,234.047 119.831,234.352 120.309 C 234.488 120.524,235.166 120.822,235.859 120.972 C 236.551 121.123,237.434 121.595,237.821 122.023 C 238.207 122.450,238.721 122.803,238.962 122.807 C 239.799 122.821,242.598 124.881,246.020 128.000 C 247.106 128.990,248.220 130.003,248.497 130.250 C 250.875 132.379,256.000 138.672,256.000 139.464 C 256.000 139.772,256.263 140.126,256.585 140.250 C 256.906 140.373,257.284 140.836,257.425 141.278 C 257.565 141.721,258.112 142.719,258.640 143.497 C 259.168 144.275,259.600 145.173,259.600 145.493 C 259.600 145.812,259.960 146.531,260.400 147.091 C 260.840 147.650,261.200 148.433,261.200 148.831 C 261.200 149.229,261.547 150.150,261.971 150.877 C 262.395 151.605,262.872 152.920,263.031 153.800 C 263.190 154.680,263.569 155.782,263.873 156.249 C 264.177 156.717,264.525 158.067,264.647 159.249 C 264.769 160.432,265.144 162.120,265.480 163.000 C 266.925 166.783,267.061 196.522,265.649 200.110 C 265.409 200.721,265.020 202.431,264.784 203.910 C 264.549 205.390,264.112 206.975,263.813 207.433 C 263.514 207.892,263.144 209.102,262.991 210.123 C 262.838 211.143,262.372 212.371,261.956 212.851 C 261.540 213.330,261.200 214.121,261.200 214.607 C 261.200 215.094,260.865 215.921,260.455 216.446 C 260.045 216.971,259.570 217.850,259.399 218.400 C 258.929 219.909,256.774 223.600,256.362 223.600 C 256.163 223.600,256.000 223.853,256.000 224.163 C 256.000 224.720,251.269 230.683,248.985 233.004 C 247.117 234.902,243.507 237.740,240.847 239.400 C 240.495 239.620,239.696 240.205,239.072 240.700 C 238.449 241.195,237.587 241.600,237.157 241.600 C 236.727 241.600,236.275 241.861,236.152 242.181 C 236.030 242.500,235.270 242.973,234.465 243.231 C 233.659 243.490,232.718 243.946,232.374 244.246 C 232.029 244.545,231.129 244.905,230.374 245.044 C 229.618 245.183,228.600 245.546,228.111 245.851 C 227.623 246.155,226.273 246.596,225.111 246.832 C 223.950 247.068,222.450 247.509,221.779 247.812 C 221.107 248.115,218.677 248.543,216.379 248.764 C 214.080 248.985,211.390 249.345,210.400 249.565 C 206.982 250.325,167.195 250.119,166.331 249.338 C 165.598 248.674,165.119 116.520,165.843 114.633 C 166.259 113.547,213.092 113.691,217.227 114.791 M189.954 134.337 C 189.869 134.592,189.846 156.130,189.903 182.200 L 190.006 229.600 200.954 229.600 C 209.590 229.600,212.194 229.478,213.284 229.023 C 214.044 228.705,215.641 228.319,216.833 228.164 C 218.025 228.009,219.429 227.549,219.954 227.141 C 220.479 226.733,221.202 226.400,221.561 226.400 C 221.920 226.400,222.877 225.950,223.686 225.400 C 224.495 224.850,225.267 224.400,225.400 224.400 C 226.009 224.400,231.144 219.856,232.400 218.206 C 233.170 217.195,234.057 216.085,234.372 215.740 C 234.975 215.079,236.037 213.273,236.806 211.600 C 237.059 211.050,237.586 209.970,237.978 209.200 C 238.369 208.430,238.820 207.080,238.981 206.200 C 239.142 205.320,239.521 204.150,239.825 203.600 C 241.996 199.660,243.186 172.705,241.422 167.400 C 241.129 166.520,240.762 164.498,240.605 162.906 C 240.448 161.315,239.978 159.341,239.560 158.522 C 239.142 157.702,238.800 156.685,238.800 156.263 C 238.800 155.840,238.461 154.933,238.046 154.247 C 237.631 153.561,237.155 152.553,236.989 152.008 C 236.823 151.462,236.381 150.562,236.006 150.008 C 235.632 149.453,234.802 148.200,234.163 147.222 C 232.707 144.996,227.913 140.153,226.822 139.807 C 226.372 139.664,225.779 139.328,225.502 139.060 C 224.659 138.242,220.787 136.560,217.152 135.432 C 213.216 134.211,190.304 133.289,189.954 134.337 " stroke="none" fill="#ecf4fb" fill-rule="evenodd"></path><path id="path2" d="M84.921 80.298 C 87.077 80.371,90.497 80.370,92.521 80.298 C 94.544 80.225,92.780 80.166,88.600 80.167 C 84.420 80.167,82.764 80.226,84.921 80.298 M80.197 200.200 C 80.197 265.760,80.244 292.640,80.300 259.932 C 80.356 227.225,80.356 173.585,80.300 140.732 C 80.244 107.880,80.197 134.640,80.197 200.200 M210.305 114.683 C 210.802 114.779,211.522 114.775,211.905 114.675 C 212.287 114.575,211.880 114.496,211.000 114.501 C 210.120 114.505,209.807 114.587,210.305 114.683 M189.394 182.000 C 189.394 208.290,189.441 219.045,189.500 205.900 C 189.558 192.755,189.558 171.245,189.500 158.100 C 189.441 144.955,189.394 155.710,189.394 182.000 M242.534 172.000 C 242.534 173.650,242.605 174.325,242.691 173.500 C 242.778 172.675,242.778 171.325,242.691 170.500 C 242.605 169.675,242.534 170.350,242.534 172.000 M266.174 182.000 C 266.174 187.610,266.230 189.905,266.299 187.100 C 266.368 184.295,266.368 179.705,266.299 176.900 C 266.230 174.095,266.174 176.390,266.174 182.000 M242.528 191.600 C 242.528 193.030,242.601 193.615,242.689 192.900 C 242.778 192.185,242.778 191.015,242.689 190.300 C 242.601 189.585,242.528 190.170,242.528 191.600 M207.907 230.290 C 208.626 230.379,209.706 230.377,210.307 230.286 C 210.908 230.195,210.320 230.122,209.000 230.124 C 207.680 230.126,207.188 230.201,207.907 230.290 M153.932 303.500 C 184.365 303.557,234.045 303.557,264.332 303.500 C 294.620 303.443,269.720 303.397,209.000 303.397 C 148.280 303.397,123.500 303.443,153.932 303.500 " stroke="none" fill="#848c8c" fill-rule="evenodd"></path><path id="path3" d="M80.227 80.231 C 79.131 81.327,79.480 320.231,80.579 321.034 C 81.925 322.018,319.697 321.674,320.686 320.687 C 321.681 319.693,321.998 305.086,321.053 303.800 C 320.467 303.004,319.942 303.000,209.484 302.898 L 98.504 302.796 98.256 301.298 C 98.120 300.474,98.007 250.464,98.004 190.164 L 98.000 80.528 96.981 80.064 C 95.286 79.292,81.024 79.434,80.227 80.231 M96.426 80.414 C 97.188 80.822,97.200 82.486,97.200 190.988 C 97.200 261.596,97.340 301.516,97.590 302.174 L 97.980 303.200 208.514 303.200 C 296.325 303.200,319.182 303.303,319.701 303.700 C 320.644 304.421,320.876 318.896,319.959 319.812 C 318.980 320.791,81.220 320.708,80.500 319.728 C 79.651 318.572,79.779 81.478,80.629 80.629 C 81.382 79.875,95.072 79.689,96.426 80.414 M165.843 114.633 C 165.119 116.520,165.598 248.674,166.331 249.338 C 167.195 250.119,206.982 250.325,210.400 249.565 C 211.390 249.345,214.080 248.985,216.379 248.764 C 218.677 248.543,221.107 248.115,221.779 247.812 C 222.450 247.509,223.950 247.068,225.111 246.832 C 226.273 246.596,227.623 246.155,228.111 245.851 C 228.600 245.546,229.618 245.183,230.374 245.044 C 231.129 244.905,232.029 244.545,232.374 244.246 C 232.718 243.946,233.659 243.490,234.465 243.231 C 235.270 242.973,236.030 242.500,236.152 242.181 C 236.275 241.861,236.727 241.600,237.157 241.600 C 237.587 241.600,238.449 241.195,239.072 240.700 C 239.696 240.205,240.495 239.620,240.847 239.400 C 243.507 237.740,247.117 234.902,248.985 233.004 C 251.269 230.683,256.000 224.720,256.000 224.163 C 256.000 223.853,256.163 223.600,256.362 223.600 C 256.774 223.600,258.929 219.909,259.399 218.400 C 259.570 217.850,260.045 216.971,260.455 216.446 C 260.865 215.921,261.200 215.094,261.200 214.607 C 261.200 214.121,261.540 213.330,261.956 212.851 C 262.372 212.371,262.838 211.143,262.991 210.123 C 263.144 209.102,263.514 207.892,263.813 207.433 C 264.112 206.975,264.549 205.390,264.784 203.910 C 265.020 202.431,265.403 200.721,265.636 200.110 C 265.870 199.500,266.127 197.380,266.207 195.400 C 266.319 192.627,266.281 192.259,266.039 193.800 C 265.020 200.301,263.886 205.860,263.381 206.837 C 263.061 207.455,262.798 208.374,262.796 208.880 C 262.794 209.386,262.350 210.700,261.809 211.800 C 261.268 212.900,260.819 214.091,260.813 214.446 C 260.806 214.801,260.440 215.550,260.000 216.109 C 259.560 216.669,259.200 217.279,259.200 217.466 C 259.200 219.208,252.543 228.755,248.634 232.619 C 244.197 237.004,231.814 244.793,229.264 244.802 C 228.899 244.804,228.060 245.090,227.400 245.438 C 226.740 245.786,225.120 246.319,223.800 246.622 C 222.480 246.925,220.320 247.475,219.000 247.845 C 215.269 248.890,166.898 249.332,166.360 248.326 C 165.961 247.580,165.845 116.068,166.243 115.033 C 166.581 114.151,210.239 114.086,214.400 114.961 C 215.830 115.261,218.170 115.635,219.600 115.791 C 221.030 115.947,222.713 116.323,223.340 116.627 C 223.967 116.930,225.137 117.296,225.940 117.440 C 228.475 117.893,235.952 121.427,239.746 123.964 C 241.257 124.974,242.962 126.110,243.535 126.488 C 246.373 128.362,255.600 138.593,255.600 139.866 C 255.600 140.091,255.960 140.602,256.400 141.000 C 256.840 141.398,257.200 141.931,257.200 142.184 C 257.200 142.437,257.641 143.242,258.179 143.972 C 258.718 144.701,259.272 145.816,259.411 146.449 C 259.550 147.082,259.822 147.600,260.016 147.600 C 260.210 147.600,260.571 148.349,260.817 149.264 C 261.064 150.179,261.503 151.304,261.793 151.764 C 262.083 152.224,262.519 153.559,262.763 154.731 C 263.006 155.903,263.385 157.199,263.606 157.611 C 263.989 158.326,265.360 165.334,266.031 170.000 C 266.286 171.776,266.321 171.467,266.211 168.400 C 266.136 166.310,265.804 163.880,265.472 163.000 C 265.140 162.120,264.769 160.432,264.647 159.249 C 264.525 158.067,264.177 156.717,263.873 156.249 C 263.569 155.782,263.190 154.680,263.031 153.800 C 262.872 152.920,262.395 151.605,261.971 150.877 C 261.547 150.150,261.200 149.229,261.200 148.831 C 261.200 148.433,260.840 147.650,260.400 147.091 C 259.960 146.531,259.600 145.812,259.600 145.493 C 259.600 145.173,259.168 144.275,258.640 143.497 C 258.112 142.719,257.565 141.721,257.425 141.278 C 257.284 140.836,256.906 140.373,256.585 140.250 C 256.263 140.126,256.000 139.772,256.000 139.464 C 256.000 138.672,250.875 132.379,248.497 130.250 C 248.220 130.003,247.106 128.990,246.020 128.000 C 242.598 124.881,239.799 122.821,238.962 122.807 C 238.721 122.803,238.207 122.450,237.821 122.023 C 237.434 121.595,236.551 121.123,235.859 120.972 C 235.166 120.822,234.488 120.524,234.352 120.309 C 234.047 119.831,230.046 118.103,227.600 117.393 C 226.610 117.106,225.131 116.585,224.313 116.236 C 223.495 115.886,222.235 115.596,221.513 115.591 C 220.791 115.585,218.862 115.225,217.227 114.791 C 213.092 113.691,166.259 113.547,165.843 114.633 M189.784 134.027 C 189.639 134.261,189.628 134.561,189.760 134.693 C 189.892 134.825,190.000 134.695,190.000 134.403 C 190.000 133.280,213.028 134.152,217.152 135.432 C 220.787 136.560,224.659 138.242,225.502 139.060 C 225.779 139.328,226.372 139.664,226.822 139.807 C 227.913 140.153,232.707 144.996,234.163 147.222 C 234.802 148.200,235.632 149.453,236.006 150.008 C 236.381 150.562,236.823 151.462,236.989 152.008 C 237.155 152.553,237.631 153.561,238.046 154.247 C 238.461 154.933,238.800 155.840,238.800 156.263 C 238.800 156.685,239.142 157.702,239.560 158.522 C 239.978 159.341,240.448 161.315,240.605 162.906 C 240.762 164.498,241.129 166.520,241.422 167.400 C 243.186 172.705,241.996 199.660,239.825 203.600 C 239.521 204.150,239.142 205.320,238.981 206.200 C 238.820 207.080,238.369 208.430,237.978 209.200 C 237.586 209.970,237.059 211.050,236.806 211.600 C 236.037 213.273,234.975 215.079,234.372 215.740 C 234.057 216.085,233.170 217.195,232.400 218.206 C 231.144 219.856,226.009 224.400,225.400 224.400 C 225.267 224.400,224.495 224.850,223.686 225.400 C 222.877 225.950,221.920 226.400,221.561 226.400 C 221.202 226.400,220.479 226.733,219.954 227.141 C 219.429 227.549,218.025 228.009,216.833 228.164 C 215.641 228.319,214.044 228.705,213.284 229.023 C 212.194 229.478,209.590 229.600,200.953 229.600 L 190.003 229.600 189.900 182.300 L 189.797 135.000 189.698 182.492 L 189.600 229.985 190.672 230.254 C 193.158 230.878,212.536 230.089,215.029 229.262 C 216.333 228.830,218.018 228.367,218.774 228.233 C 219.529 228.100,220.429 227.745,220.774 227.446 C 221.118 227.146,222.061 226.689,222.868 226.430 C 223.675 226.171,224.552 225.698,224.817 225.380 C 225.082 225.061,225.463 224.800,225.664 224.800 C 227.100 224.800,234.399 217.396,235.633 214.687 C 235.905 214.089,236.266 213.600,236.433 213.600 C 236.601 213.600,236.959 212.925,237.230 212.100 C 237.500 211.275,237.949 210.240,238.226 209.800 C 242.206 203.496,244.318 175.979,241.658 165.085 C 241.186 163.151,240.800 161.078,240.800 160.479 C 240.800 159.879,240.440 158.716,240.000 157.896 C 239.560 157.075,239.194 156.087,239.187 155.701 C 239.174 154.949,237.583 151.583,236.015 148.989 C 230.781 140.331,222.219 134.946,212.200 134.011 C 206.248 133.456,190.129 133.467,189.784 134.027 M266.564 181.800 C 266.563 185.540,266.623 187.124,266.697 185.320 C 266.771 183.515,266.772 180.455,266.698 178.520 C 266.625 176.584,266.564 178.060,266.564 181.800 " stroke="none" fill="#8d8e95" fill-rule="evenodd"></path><path id="path4" d="M80.667 80.667 C 80.334 81.000,80.310 318.899,80.643 319.767 C 81.049 320.825,318.780 320.727,319.738 319.669 C 320.580 318.738,320.741 304.901,319.920 304.080 C 319.549 303.709,294.440 303.600,209.339 303.600 C 126.638 303.600,98.984 303.484,98.219 303.136 L 97.200 302.672 97.200 192.016 C 97.200 106.484,97.091 81.251,96.720 80.880 C 96.201 80.361,81.172 80.162,80.667 80.667 M96.301 191.981 C 96.370 268.707,96.531 303.091,96.821 303.381 C 97.110 303.670,131.649 303.862,208.320 304.000 L 319.400 304.200 319.509 311.444 C 319.595 317.207,319.505 318.781,319.067 319.144 C 318.656 319.485,288.340 319.576,199.758 319.501 L 81.000 319.400 80.899 200.091 L 80.799 80.783 88.499 80.891 L 96.200 81.000 96.301 191.981 M166.414 115.174 C 165.740 116.433,165.846 247.236,166.522 248.160 C 167.015 248.835,168.377 248.864,191.422 248.699 L 215.800 248.523 219.800 247.466 C 222.000 246.885,224.070 246.401,224.400 246.391 C 224.730 246.381,225.720 246.025,226.600 245.600 C 227.480 245.175,228.469 244.821,228.798 244.814 C 229.327 244.802,236.176 241.480,239.399 239.673 C 240.546 239.029,248.152 233.008,249.266 231.861 C 249.560 231.559,250.286 230.701,250.881 229.956 C 251.476 229.210,252.781 227.577,253.781 226.327 C 254.781 225.077,255.600 223.921,255.600 223.758 C 255.600 223.596,255.851 223.179,256.159 222.831 C 256.890 222.006,260.799 214.450,260.802 213.857 C 260.804 213.606,261.098 212.860,261.457 212.200 C 261.815 211.540,262.346 210.100,262.637 209.000 C 262.928 207.900,263.432 206.010,263.757 204.800 C 266.876 193.207,266.998 172.658,264.025 159.800 C 263.293 156.633,262.030 152.549,261.423 151.386 C 261.083 150.734,260.804 150.004,260.802 149.764 C 260.799 149.148,258.352 144.308,257.723 143.671 C 257.435 143.381,257.197 142.931,257.194 142.671 C 257.191 142.412,256.558 141.300,255.789 140.200 C 255.019 139.100,253.764 137.300,253.000 136.200 C 249.455 131.095,241.389 124.537,234.600 121.240 C 232.180 120.064,229.750 118.871,229.200 118.588 C 228.650 118.305,227.480 117.943,226.600 117.783 C 225.720 117.624,224.516 117.248,223.926 116.949 C 222.898 116.430,217.378 115.472,211.400 114.776 C 204.734 113.999,166.863 114.335,166.414 115.174 M211.200 115.616 C 212.630 115.835,215.620 116.171,217.845 116.362 C 220.251 116.569,222.277 116.958,222.845 117.324 C 223.370 117.661,224.700 118.067,225.800 118.225 C 226.900 118.383,228.229 118.847,228.754 119.256 C 229.279 119.665,230.109 120.000,230.600 120.000 C 231.091 120.000,231.950 120.360,232.509 120.800 C 233.069 121.240,233.778 121.600,234.085 121.600 C 234.393 121.600,235.255 122.050,236.000 122.600 C 236.745 123.150,237.686 123.600,238.090 123.600 C 238.494 123.600,238.920 123.846,239.035 124.147 C 239.231 124.658,242.824 127.200,243.350 127.200 C 243.710 127.200,251.600 135.064,251.600 135.422 C 251.600 135.593,251.875 136.018,252.211 136.366 C 253.086 137.273,254.711 139.645,255.180 140.700 C 255.400 141.195,255.750 141.600,255.958 141.600 C 256.166 141.600,256.451 142.121,256.591 142.759 C 256.731 143.396,257.195 144.234,257.623 144.621 C 258.050 145.007,258.400 145.621,258.400 145.984 C 258.400 146.347,258.850 147.255,259.400 148.000 C 259.950 148.745,260.401 149.815,260.401 150.378 C 260.402 150.940,260.736 151.946,261.143 152.614 C 261.550 153.281,262.014 154.721,262.173 155.814 C 262.332 156.906,262.723 158.205,263.041 158.700 C 263.359 159.196,263.786 161.359,263.991 163.508 C 264.196 165.657,264.642 168.081,264.982 168.895 C 265.897 171.086,265.893 192.527,264.976 194.713 C 264.633 195.531,264.201 197.934,264.016 200.053 C 263.822 202.278,263.422 204.307,263.071 204.853 C 262.736 205.374,262.337 206.700,262.184 207.800 C 262.031 208.900,261.567 210.361,261.153 211.047 C 260.739 211.733,260.397 212.633,260.394 213.047 C 260.391 213.461,260.133 214.250,259.821 214.800 C 259.509 215.350,258.609 217.086,257.820 218.657 C 257.031 220.228,256.119 221.735,255.793 222.006 C 255.467 222.277,255.200 222.729,255.200 223.012 C 255.200 223.726,247.559 233.200,246.982 233.200 C 246.575 233.200,243.011 236.043,242.680 236.631 C 242.504 236.944,242.106 237.200,241.794 237.200 C 241.483 237.200,241.035 237.560,240.800 238.000 C 240.565 238.440,240.027 238.800,239.607 238.800 C 239.186 238.800,238.356 239.250,237.762 239.800 C 237.169 240.350,236.374 240.800,235.996 240.800 C 235.617 240.800,234.879 241.135,234.354 241.545 C 233.829 241.955,232.950 242.426,232.400 242.592 C 231.850 242.759,231.107 243.151,230.750 243.464 C 230.392 243.778,229.402 244.142,228.550 244.274 C 227.697 244.406,226.370 244.823,225.600 245.201 C 224.830 245.579,223.137 246.008,221.838 246.155 C 220.538 246.302,218.828 246.732,218.038 247.111 C 216.724 247.740,214.437 247.800,191.600 247.800 L 166.600 247.800 166.487 182.800 C 166.424 147.050,166.478 117.215,166.605 116.500 L 166.836 115.200 187.718 115.208 C 199.572 115.213,209.724 115.389,211.200 115.616 M189.423 133.289 C 188.517 134.582,188.467 229.626,189.372 230.377 C 190.359 231.196,214.745 230.792,216.052 229.935 C 216.610 229.569,217.896 229.145,218.909 228.993 C 219.922 228.841,221.060 228.375,221.438 227.958 C 221.815 227.541,222.546 227.200,223.062 227.200 C 223.578 227.200,224.360 226.840,224.800 226.400 C 225.240 225.960,225.736 225.600,225.901 225.600 C 227.152 225.600,234.086 219.162,234.627 217.500 C 234.752 217.115,235.000 216.800,235.178 216.800 C 235.357 216.800,235.721 216.273,235.988 215.629 C 236.255 214.985,236.717 214.364,237.015 214.250 C 237.312 214.136,237.674 213.414,237.818 212.647 C 237.961 211.880,238.421 210.943,238.840 210.564 C 239.258 210.186,239.601 209.409,239.603 208.838 C 239.604 208.267,239.956 207.268,240.384 206.619 C 240.812 205.969,241.284 204.439,241.432 203.219 C 241.581 201.998,241.994 200.460,242.351 199.800 C 243.332 197.987,243.332 165.213,242.351 163.400 C 241.994 162.740,241.576 161.165,241.422 159.900 C 241.268 158.635,240.898 157.355,240.600 157.057 C 240.302 156.759,239.938 155.814,239.792 154.957 C 239.645 154.101,239.207 152.947,238.819 152.392 C 238.430 151.838,237.979 150.964,237.816 150.451 C 237.483 149.401,236.201 147.430,235.000 146.122 C 234.560 145.643,233.840 144.778,233.400 144.199 C 232.410 142.899,230.358 140.833,229.126 139.896 C 228.617 139.510,227.634 138.745,226.942 138.196 C 226.250 137.648,225.510 137.200,225.296 137.200 C 225.083 137.200,224.469 136.855,223.933 136.433 C 223.396 136.011,222.247 135.538,221.379 135.382 C 220.510 135.226,219.484 134.823,219.099 134.486 C 218.632 134.078,217.016 133.766,214.262 133.551 C 211.987 133.373,209.636 133.042,209.037 132.814 C 206.610 131.891,190.122 132.291,189.423 133.289 M213.122 133.982 C 221.305 134.773,229.408 139.501,234.495 146.450 C 237.247 150.210,240.390 157.210,240.937 160.800 C 241.055 161.570,241.535 164.000,242.004 166.200 C 244.536 178.078,242.321 202.634,237.987 210.719 C 237.554 211.527,237.200 212.319,237.200 212.480 C 237.200 212.640,236.653 213.543,235.985 214.486 C 235.318 215.429,234.351 216.834,233.838 217.608 C 232.625 219.441,229.542 222.469,227.564 223.771 C 226.704 224.337,225.315 225.250,224.478 225.800 C 223.642 226.350,222.746 226.800,222.488 226.800 C 222.230 226.800,221.430 227.159,220.710 227.599 C 219.989 228.038,219.081 228.398,218.690 228.399 C 218.300 228.399,216.950 228.789,215.690 229.265 C 212.902 230.319,190.923 230.932,189.785 229.988 C 189.182 229.487,188.847 135.786,189.443 134.233 C 189.726 133.495,206.277 133.320,213.122 133.982 " stroke="none" fill="#6c7474" fill-rule="evenodd"></path></g></svg>